<svg width="1076" height="1210" viewBox="0 0 1076 1210" fill="none" xmlns="http://www.w3.org/2000/svg">
<path d="M980.75 714.855L949 659.928L980.75 605H1044.25L1076 659.928L1044.25 714.855H980.75Z" fill="#FFCE9E"/>
<path d="M790.75 604.904L759 549.952L790.75 495H854.25L886 549.952L854.25 604.904H790.75Z" fill="#D18B47"/>
<path d="M885.75 659.904L854 604.952L885.75 550H949.25L981 604.952L949.25 659.904H885.75Z" fill="#E8AB6F"/>
<path d="M222.75 1044.86L191 989.928L222.75 935H286.25L318 989.928L286.25 1044.86H222.75Z" fill="#FFCE9E"/>
<path d="M32.75 934.904L1 879.952L32.75 825H96.25L128 879.952L96.25 934.904H32.75Z" fill="#D18B47"/>
<path d="M127.75 989.904L96 934.952L127.75 880H191.25L223 934.952L191.25 989.904H127.75Z" fill="#E8AB6F"/>
<path d="M507.75 1209.86L476 1154.93L507.75 1100H571.25L603 1154.93L571.25 1209.86H507.75Z" fill="#FFCE9E"/>
<path d="M317.75 1099.9L286 1044.95L317.75 990H381.25L413 1044.95L381.25 1099.9H317.75Z" fill="#D18B47"/>
<path d="M412.75 1154.9L381 1099.95L412.75 1045H476.25L508 1099.95L476.25 1154.9H412.75Z" fill="#E8AB6F"/>
<path d="M222.75 714.855L191 659.928L222.75 605H286.25L318 659.928L286.25 714.855H222.75Z" fill="#FFCE9E"/>
<path d="M32.75 604.904L1 549.952L32.75 495H96.25L128 549.952L96.25 604.904H32.75Z" fill="#D18B47"/>
<path d="M127.75 659.904L96 604.952L127.75 550H191.25L223 604.952L191.25 659.904H127.75Z" fill="#E8AB6F"/>
<path d="M506.75 879.855L475 824.928L506.75 770H570.25L602 824.928L570.25 879.855H506.75Z" fill="#FFCE9E"/>
<path d="M316.75 769.904L285 714.952L316.75 660H380.25L412 714.952L380.25 769.904H316.75Z" fill="#D18B47"/>
<path d="M411.75 824.904L380 769.952L411.75 715H475.25L507 769.952L475.25 824.904H411.75Z" fill="#E8AB6F"/>
<path d="M791.75 1044.86L760 989.928L791.75 935H855.25L887 989.928L855.25 1044.86H791.75Z" fill="#FFCE9E"/>
<path d="M601.75 934.904L570 879.952L601.75 825H665.25L697 879.952L665.25 934.904H601.75Z" fill="#D18B47"/>
<path d="M696.75 989.904L665 934.952L696.75 880H760.25L792 934.952L760.25 989.904H696.75Z" fill="#E8AB6F"/>
<path d="M696.75 549.855L665 494.928L696.75 440H760.25L792 494.928L760.25 549.855H696.75Z" fill="#FFCE9E"/>
<path d="M506.75 439.904L475 384.952L506.75 330H570.25L602 384.952L570.25 439.904H506.75Z" fill="#D18B47"/>
<path d="M601.75 494.904L570 439.952L601.75 385H665.25L697 439.952L665.25 494.904H601.75Z" fill="#E8AB6F"/>
<path d="M411.75 384.855L380 329.928L411.75 275H475.25L507 329.928L475.25 384.855H411.75Z" fill="#FFCE9E"/>
<path d="M221.75 274.904L190 219.952L221.75 165H285.25L317 219.952L285.25 274.904H221.75Z" fill="#D18B47"/>
<path d="M316.75 329.904L285 274.952L316.75 220H380.25L412 274.952L380.25 329.904H316.75Z" fill="#E8AB6F"/>
<path d="M316.75 219.855L285 164.928L316.75 110H380.25L412 164.928L380.25 219.855H316.75Z" fill="#FFCE9E"/>
<path d="M411.75 274.904L380 219.952L411.75 165H475.25L507 219.952L475.25 274.904H411.75Z" fill="#D18B47"/>
<path d="M31.75 384.855L0 329.928L31.75 275H95.25L127 329.928L95.25 384.855H31.75Z" fill="#FFCE9E"/>
<path d="M126.75 439.904L95 384.952L126.75 330H190.25L222 384.952L190.25 439.904H126.75Z" fill="#D18B47"/>
<path d="M221.75 494.904L190 439.952L221.75 385H285.25L317 439.952L285.25 494.904H221.75Z" fill="#E8AB6F"/>
<path d="M32.75 714.855L1 659.928L32.75 605H96.25L128 659.928L96.25 714.855H32.75Z" fill="#FFCE9E"/>
<path d="M127.75 769.904L96 714.952L127.75 660H191.25L223 714.952L191.25 769.904H127.75Z" fill="#D18B47"/>
<path d="M222.75 824.904L191 769.952L222.75 715H286.25L318 769.952L286.25 824.904H222.75Z" fill="#E8AB6F"/>
<path d="M317.75 879.855L286 824.928L317.75 770H381.25L413 824.928L381.25 879.855H317.75Z" fill="#FFCE9E"/>
<path d="M412.75 934.904L381 879.952L412.75 825H476.25L508 879.952L476.25 934.904H412.75Z" fill="#D18B47"/>
<path d="M507.75 989.904L476 934.952L507.75 880H571.25L603 934.952L571.25 989.904H507.75Z" fill="#E8AB6F"/>
<path d="M601.75 1044.86L570 989.928L601.75 935H665.25L697 989.928L665.25 1044.86H601.75Z" fill="#FFCE9E"/>
<path d="M696.75 1099.9L665 1044.95L696.75 990H760.25L792 1044.95L760.25 1099.9H696.75Z" fill="#D18B47"/>
<path d="M316.75 549.855L285 494.928L316.75 440H380.25L412 494.928L380.25 549.855H316.75Z" fill="#FFCE9E"/>
<path d="M411.75 604.904L380 549.952L411.75 495H475.25L507 549.952L475.25 604.904H411.75Z" fill="#D18B47"/>
<path d="M506.75 659.904L475 604.952L506.75 550H570.25L602 604.952L570.25 659.904H506.75Z" fill="#E8AB6F"/>
<path d="M601.75 1154.9L570 1099.95L601.75 1045H665.25L697 1099.95L665.25 1154.9H601.75Z" fill="#E8AB6F"/>
<path d="M885.75 879.855L854 824.928L885.75 770H949.25L981 824.928L949.25 879.855H885.75Z" fill="#FFCE9E"/>
<path d="M980.75 934.904L949 879.952L980.75 825H1044.25L1076 879.952L1044.25 934.904H980.75Z" fill="#D18B47"/>
<path d="M601.75 714.855L570 659.928L601.75 605H665.25L697 659.928L665.25 714.855H601.75Z" fill="#FFCE9E"/>
<path d="M696.75 769.904L665 714.952L696.75 660H760.25L792 714.952L760.25 769.904H696.75Z" fill="#D18B47"/>
<path d="M791.75 824.904L760 769.952L791.75 715H855.25L887 769.952L855.25 824.904H791.75Z" fill="#E8AB6F"/>
<path d="M885.75 549.855L854 494.928L885.75 440H949.25L981 494.928L949.25 549.855H885.75Z" fill="#FFCE9E"/>
<path d="M980.75 604.904L949 549.952L980.75 495H1044.25L1076 549.952L1044.25 604.904H980.75Z" fill="#D18B47"/>
<path d="M600.75 384.855L569 329.928L600.75 275H664.25L696 329.928L664.25 384.855H600.75Z" fill="#FFCE9E"/>
<path d="M695.75 439.904L664 384.952L695.75 330H759.25L791 384.952L759.25 439.904H695.75Z" fill="#D18B47"/>
<path d="M790.75 494.904L759 439.952L790.75 385H854.25L886 439.952L854.25 494.904H790.75Z" fill="#E8AB6F"/>
<path d="M506.75 329.904L475 274.952L506.75 220H570.25L602 274.952L570.25 329.904H506.75Z" fill="#E8AB6F"/>
<path d="M412.75 1044.86L381 989.928L412.75 935H476.25L508 989.928L476.25 1044.86H412.75Z" fill="#FFCE9E"/>
<path d="M127.75 879.855L96 824.928L127.75 770H191.25L223 824.928L191.25 879.855H127.75Z" fill="#FFCE9E"/>
<path d="M696.75 879.855L665 824.928L696.75 770H760.25L792 824.928L760.25 879.855H696.75Z" fill="#FFCE9E"/>
<path d="M411.75 714.855L380 659.928L411.75 605H475.25L507 659.928L475.25 714.855H411.75Z" fill="#FFCE9E"/>
<path d="M127.75 549.855L96 494.928L127.75 440H191.25L223 494.928L191.25 549.855H127.75Z" fill="#FFCE9E"/>
<path d="M506.75 549.855L475 494.928L506.75 440H570.25L602 494.928L570.25 549.855H506.75Z" fill="#FFCE9E"/>
<path d="M790.75 714.855L759 659.928L790.75 605H854.25L886 659.928L854.25 714.855H790.75Z" fill="#FFCE9E"/>
<path d="M221.75 384.855L190 329.928L221.75 275H285.25L317 329.928L285.25 384.855H221.75Z" fill="#FFCE9E"/>
<path d="M507.75 1099.9L476 1044.95L507.75 990H571.25L603 1044.95L571.25 1099.9H507.75Z" fill="#D18B47"/>
<path d="M222.75 934.904L191 879.952L222.75 825H286.25L318 879.952L286.25 934.904H222.75Z" fill="#D18B47"/>
<path d="M791.75 934.904L760 879.952L791.75 825H855.25L887 879.952L855.25 934.904H791.75Z" fill="#D18B47"/>
<path d="M506.75 769.904L475 714.952L506.75 660H570.25L602 714.952L570.25 769.904H506.75Z" fill="#D18B47"/>
<path d="M222.75 604.904L191 549.952L222.75 495H286.25L318 549.952L286.25 604.904H222.75Z" fill="#D18B47"/>
<path d="M601.75 604.904L570 549.952L601.75 495H665.25L697 549.952L665.25 604.904H601.75Z" fill="#D18B47"/>
<path d="M885.75 769.904L854 714.952L885.75 660H949.25L981 714.952L949.25 769.904H885.75Z" fill="#D18B47"/>
<path d="M316.75 439.904L285 384.952L316.75 330H380.25L412 384.952L380.25 439.904H316.75Z" fill="#D18B47"/>
<path d="M980.75 824.904L949 769.952L980.75 715H1044.25L1076 769.952L1044.25 824.904H980.75Z" fill="#E8AB6F"/>
<path d="M317.75 989.904L286 934.952L317.75 880H381.25L413 934.952L381.25 989.904H317.75Z" fill="#E8AB6F"/>
<path d="M32.75 824.904L1 769.952L32.75 715H96.25L128 769.952L96.25 824.904H32.75Z" fill="#E8AB6F"/>
<path d="M885.75 989.904L854 934.952L885.75 880H949.25L981 934.952L949.25 989.904H885.75Z" fill="#E8AB6F"/>
<path d="M601.75 824.904L570 769.952L601.75 715H665.25L697 769.952L665.25 824.904H601.75Z" fill="#E8AB6F"/>
<path d="M316.75 659.904L285 604.952L316.75 550H380.25L412 604.952L380.25 659.904H316.75Z" fill="#E8AB6F"/>
<path d="M32.75 494.904L1 439.952L32.75 385H96.25L128 439.952L96.25 494.904H32.75Z" fill="#E8AB6F"/>
<path d="M411.75 494.904L380 439.952L411.75 385H475.25L507 439.952L475.25 494.904H411.75Z" fill="#E8AB6F"/>
<path d="M695.75 659.904L664 604.952L695.75 550H759.25L791 604.952L759.25 659.904H695.75Z" fill="#E8AB6F"/>
<path d="M126.75 329.904L95 274.952L126.75 220H190.25L222 274.952L190.25 329.904H126.75Z" fill="#E8AB6F"/>
<path d="M980.75 494.904L949 439.952L980.75 385H1044.25L1076 439.952L1044.25 494.904H980.75Z" fill="#E8AB6F"/>
<path d="M505.75 219.855L474 164.928L505.75 110H569.25L601 164.928L569.25 219.855H505.75Z" fill="#FFCE9E"/>
<path d="M600.75 274.904L569 219.952L600.75 165H664.25L696 219.952L664.25 274.904H600.75Z" fill="#D18B47"/>
<path d="M410.75 164.904L379 109.952L410.75 55H474.25L506 109.952L474.25 164.904H410.75Z" fill="#E8AB6F"/>
<path d="M790.75 384.855L759 329.928L790.75 275H854.25L886 329.928L854.25 384.855H790.75Z" fill="#FFCE9E"/>
<path d="M885.75 439.904L854 384.952L885.75 330H949.25L981 384.952L949.25 439.904H885.75Z" fill="#D18B47"/>
<path d="M695.75 329.904L664 274.952L695.75 220H759.25L791 274.952L759.25 329.904H695.75Z" fill="#E8AB6F"/>
<path d="M695.75 219.855L664 164.928L695.75 110H759.25L791 164.928L759.25 219.855H695.75Z" fill="#FFCE9E"/>
<path d="M505.75 109.904L474 54.9519L505.75 0H569.25L601 54.9519L569.25 109.904H505.75Z" fill="#D18B47"/>
<path d="M600.75 164.904L569 109.952L600.75 55H664.25L696 109.952L664.25 164.904H600.75Z" fill="#E8AB6F"/>
<path d="M980.75 384.855L949 329.928L980.75 275H1044.25L1076 329.928L1044.25 384.855H980.75Z" fill="#FFCE9E"/>
<path d="M790.75 274.904L759 219.952L790.75 165H854.25L886 219.952L854.25 274.904H790.75Z" fill="#D18B47"/>
<path d="M885.75 329.904L854 274.952L885.75 220H949.25L981 274.952L949.25 329.904H885.75Z" fill="#E8AB6F"/>
</svg>
